<svg xmlns="http://www.w3.org/2000/svg" width="120" height="120"><defs><clipPath id="a"><path d="M0 0h120v120H0z" data-name="Rectangle 72"/></clipPath></defs><g clip-path="url(#a)" data-name="Button - XBOX A"><g fill="none" stroke="#fff" stroke-width="2" data-name="Border white - outer" transform="translate(14 14)"><circle cx="46" cy="46" r="46" stroke="none"/><circle cx="46" cy="46" r="45"/></g><g fill="none" stroke="#fff" stroke-width="4" data-name="Border white - inner" transform="translate(14 14)"><circle cx="46" cy="46" r="46" stroke="none"/><circle cx="46" cy="46" r="48"/></g><circle cx="46" cy="46" r="46" fill="#992323" data-name="Button - Base" transform="translate(14 14)"/><g fill="#ff3b3b" stroke="#ff3b3b" stroke-width="6" data-name="Button - Top" transform="translate(18 14)"><circle cx="42" cy="42" r="42" stroke="none"/><circle cx="42" cy="42" r="39" fill="none"/></g><ellipse cx="42" cy="37.5" fill="#cc2f2f" data-name="Button - Top" rx="42" ry="37.5" transform="translate(18 23)"/><path fill="#fff" d="M46.711 35.451h12q8.2 0 11.9 2.333t3.7 7.422a9.352 9.352 0 0 1-1.611 5.67 6.478 6.478 0 0 1-4.311 2.663v.264a8.493 8.493 0 0 1 5.287 3.059 9.951 9.951 0 0 1 1.622 5.959 9.82 9.82 0 0 1-3.81 8.227Q67.673 74 61.134 74H46.711Zm8.174 15.267h4.746a8.677 8.677 0 0 0 4.812-1.028 3.836 3.836 0 0 0 1.49-3.4 3.4 3.4 0 0 0-1.622-3.177 10.423 10.423 0 0 0-5.128-.962h-4.3Zm0 6.486V67.25h5.326a7.9 7.9 0 0 0 4.983-1.292A4.769 4.769 0 0 0 66.8 62q0-4.8-6.855-4.8Z" data-name="Path 131"/></g></svg>
