<svg xmlns="http://www.w3.org/2000/svg" width="120" height="120"><defs><clipPath id="a"><path d="M0 0h120v120H0z"/></clipPath></defs><g clip-path="url(#a)"><circle cx="42" cy="42" r="42" fill="#2a2a2a" stroke="#fff" stroke-width="4" data-name="Ellipse 45" transform="translate(28 18)"/><path fill="#2a2a2a" d="M70 24a35.987 35.987 0 0 1 11 1.712V45a4 4 0 0 0 4 4h19.288a36.2 36.2 0 0 1 0 22H85a4 4 0 0 0-4 4v19.288a36.2 36.2 0 0 1-22 0V75a4.005 4.005 0 0 0-4-4H35.711a36.2 36.2 0 0 1 0-22H55a4 4 0 0 0 4-4V25.711A35.986 35.986 0 0 1 70 24Z" data-name="Subtraction 45"/><path fill="#404040" d="M70 24a37.934 37.934 0 0 1 11 1.617V45a4 4 0 0 0 4 4h19.725a32.4 32.4 0 0 1-.308 19H85a4 4 0 0 0-4 4v18.384a38.235 38.235 0 0 1-22 0V72a4 4 0 0 0-4-4H35.582a32.4 32.4 0 0 1-.307-19H55a4.005 4.005 0 0 0 4-4V25.616A37.933 37.933 0 0 1 70 24Z" data-name="Subtraction 46"/><path fill="#fff" d="m6 60 16-16v32Z" data-name="Polygon 6"/><path fill="#5b5b5b" d="M35.274 49H55v19H35.582A32.262 32.262 0 0 1 34 58a32.315 32.315 0 0 1 1.274-9Z" data-name="Subtraction 48"/><rect width="19" height="2" fill="#5b5b5b" data-name="Rectangle 198" rx="1" transform="rotate(90 3.5 52.5)"/></g></svg>
