<svg xmlns="http://www.w3.org/2000/svg" width="120" height="120"><defs><clipPath id="a"><path d="M0 0h120v120H0z"/></clipPath></defs><g clip-path="url(#a)"><circle cx="42" cy="42" r="42" fill="#2a2a2a" stroke="#fff" stroke-width="4" data-name="Ellipse 60" transform="translate(18 28)"/><path fill="#2a2a2a" d="M60 106a35.984 35.984 0 0 1-11-1.711V85a4 4 0 0 0-4-4H25.711A35.98 35.98 0 0 1 24 70a35.987 35.987 0 0 1 1.712-11H45a4 4 0 0 0 4-4V35.711A35.983 35.983 0 0 1 60 34a35.99 35.99 0 0 1 11 1.712V55a4 4 0 0 0 4 4h19.289A35.988 35.988 0 0 1 96 70a35.993 35.993 0 0 1-1.712 11H75a4 4 0 0 0-4 4v19.288A35.988 35.988 0 0 1 60 106Z" data-name="Subtraction 45"/><path fill="#404040" d="M60 102a37.932 37.932 0 0 1-11-1.616V82a4 4 0 0 0-4-4H25.582A32.272 32.272 0 0 1 24 68a32.31 32.31 0 0 1 1.275-9H45a4 4 0 0 0 4-4V35.616A37.927 37.927 0 0 1 60 34a37.936 37.936 0 0 1 11 1.617V55a4 4 0 0 0 4 4h19.726a32.312 32.312 0 0 1 1.275 9 32.278 32.278 0 0 1-1.582 10H75a4 4 0 0 0-4 4v18.384A37.934 37.934 0 0 1 60 102Z" data-name="Subtraction 46"/><path fill="#fff" d="m60 6 16 16H44Z" data-name="Polygon 6"/><path fill="#5b5b5b" d="M71 55H49V35.616A37.9 37.9 0 0 1 60 34a37.929 37.929 0 0 1 11 1.617V55Z" data-name="Subtraction 48"/><rect width="22" height="2" fill="#5b5b5b" data-name="Rectangle 197" rx="1" transform="rotate(-180 35.5 28)"/></g></svg>
