<svg xmlns="http://www.w3.org/2000/svg" width="120" height="120"><defs><clipPath id="a"><path d="M0 0h120v120H0z"/></clipPath></defs><g clip-path="url(#a)"><circle cx="42" cy="42" r="42" fill="#2a2a2a" stroke="#fff" stroke-width="4" data-name="Ellipse 45" transform="translate(8 18)"/><path fill="#2a2a2a" d="M50 96a35.984 35.984 0 0 1-11-1.711V75a4 4 0 0 0-4-4H15.711A35.98 35.98 0 0 1 14 60a35.987 35.987 0 0 1 1.712-11H35a4 4 0 0 0 4-4V25.711A35.983 35.983 0 0 1 50 24a35.99 35.99 0 0 1 11 1.712V45a4 4 0 0 0 4 4h19.289A35.988 35.988 0 0 1 86 60a35.993 35.993 0 0 1-1.712 11H65a4 4 0 0 0-4 4v19.288A35.988 35.988 0 0 1 50 96Z" data-name="Subtraction 45"/><path fill="#404040" d="M50 92a37.932 37.932 0 0 1-11-1.616V72a4 4 0 0 0-4-4H15.582A32.272 32.272 0 0 1 14 58a32.31 32.31 0 0 1 1.275-9H35a4 4 0 0 0 4-4V25.616A37.927 37.927 0 0 1 50 24a37.936 37.936 0 0 1 11 1.617V45a4 4 0 0 0 4 4h19.726a32.312 32.312 0 0 1 1.275 9 32.278 32.278 0 0 1-1.582 10H65a4 4 0 0 0-4 4v18.384A37.934 37.934 0 0 1 50 92Z" data-name="Subtraction 46"/><path fill="#fff" d="M114 60 98 76V44Z" data-name="Polygon 6"/><path fill="#5b5b5b" d="M84.418 68H65V49h19.726a32.348 32.348 0 0 1 1.275 9 32.262 32.262 0 0 1-1.583 10Z" data-name="Subtraction 48"/><rect width="19" height="2" fill="#5b5b5b" data-name="Rectangle 197" rx="1" transform="rotate(90 8.5 57.5)"/></g></svg>
