<svg xmlns="http://www.w3.org/2000/svg" width="120" height="120"><defs><clipPath id="a"><path d="M0 0h120v120H0z"/></clipPath></defs><g clip-path="url(#a)"><circle cx="42" cy="42" r="42" fill="#2a2a2a" stroke="#fff" stroke-width="4" data-name="Ellipse 45" transform="translate(8 18)"/><g fill="#404040" data-name="Subtraction 45"><path d="M50 94c-3.06 0-6.08-.405-9-1.204V75c0-3.309-2.691-6-6-6H17.203A34.05 34.05 0 0 1 16 60c0-3.06.404-6.081 1.203-9H35c3.309 0 6-2.692 6-6V27.203A34.051 34.051 0 0 1 50 26c3.06 0 6.08.404 9 1.203V45c0 3.308 2.691 6 6 6h17.797A34.048 34.048 0 0 1 84 60c0 3.059-.404 6.08-1.203 9H65c-3.309 0-6 2.691-6 6v17.796a34.058 34.058 0 0 1-9 1.203Z"/><path d="M50 92c2.37 0 4.713-.258 7-.768V75c0-4.411 3.589-8 8-8h16.233c.51-2.287.767-4.631.767-7 0-2.37-.257-4.714-.767-7H65c-4.411 0-8-3.59-8-8V28.767A32.14 32.14 0 0 0 50 28c-2.37 0-4.714.257-7 .767V45c0 4.41-3.588 8-8 8H18.767A32.128 32.128 0 0 0 18 60c0 2.37.257 4.714.767 7H35c4.412 0 8 3.589 8 8v16.232c2.286.51 4.63.767 7 .767m0 4c-3.756 0-7.457-.575-11-1.711V75c0-2.206-1.794-4-4-4H15.711A35.98 35.98 0 0 1 14 60c0-3.756.576-7.457 1.711-11h19.29c2.205 0 4-1.795 4-4V25.71A35.983 35.983 0 0 1 50 24c3.755 0 7.456.575 11 1.711V45c0 2.205 1.794 4 4 4h19.289A35.988 35.988 0 0 1 86 60c0 3.755-.575 7.456-1.711 11H65c-2.206 0-4 1.794-4 4v19.288a35.988 35.988 0 0 1-11 1.711Z"/></g><path fill="#5b5b5b" d="M50 92a37.932 37.932 0 0 1-11-1.616V72a4 4 0 0 0-4-4H15.582A32.272 32.272 0 0 1 14 58a32.31 32.31 0 0 1 1.275-9H35a4 4 0 0 0 4-4V25.616A37.927 37.927 0 0 1 50 24a37.936 37.936 0 0 1 11 1.617V45a4 4 0 0 0 4 4h19.726a32.312 32.312 0 0 1 1.275 9 32.278 32.278 0 0 1-1.582 10H65a4 4 0 0 0-4 4v18.384A37.934 37.934 0 0 1 50 92Z" data-name="Subtraction 46"/><path fill="#fff" d="M114 60 98 76V44Z" data-name="Polygon 6"/><path fill="#404040" d="M83.275 71H65V49h19.726a32.348 32.348 0 0 1 1.275 9 32.178 32.178 0 0 1-2.725 13Z" data-name="Subtraction 48"/><rect width="19" height="2" fill="#5b5b5b" data-name="Rectangle 197" rx="1" transform="rotate(90 8.5 57.5)"/></g></svg>
