<svg xmlns="http://www.w3.org/2000/svg" width="120" height="120"><defs><clipPath id="a"><path d="M0 0h120v120H0z"/></clipPath></defs><g clip-path="url(#a)"><circle cx="42" cy="42" r="42" fill="#2a2a2a" stroke="#fff" stroke-width="4" data-name="Ellipse 45" transform="translate(28 18)"/><g fill="#404040" data-name="Subtraction 45"><path d="M70 26c3.06 0 6.08.404 9 1.203v17.798c0 3.308 2.691 6 6 6h17.797A34.047 34.047 0 0 1 104 60c0 3.06-.404 6.08-1.203 9H84.999c-3.308 0-6 2.692-6 6v17.797A34.055 34.055 0 0 1 70 94c-3.06 0-6.08-.404-9-1.203V75c0-3.308-2.692-6-6-6H37.203A34.056 34.056 0 0 1 36 60c0-3.06.404-6.08 1.203-9H55c3.308 0 6-2.691 6-6V27.204A34.055 34.055 0 0 1 70 26Z"/><path d="M70 28c-2.37 0-4.714.257-7 .767v16.234c0 4.41-3.589 8-8 8H38.767A32.143 32.143 0 0 0 38 60c0 2.37.257 4.714.767 7H55c4.411 0 8 3.589 8 8v16.233c2.286.51 4.63.767 7 .767s4.714-.257 7-.767V75c0-4.411 3.588-8 8-8h16.233c.51-2.286.767-4.63.767-7s-.257-4.714-.767-7H84.999c-4.41 0-8-3.588-8-8V28.768A32.136 32.136 0 0 0 70 28m0-4c3.755 0 7.456.576 11 1.712V45c0 2.205 1.794 4 4 4h19.288A35.986 35.986 0 0 1 106 60a36.01 36.01 0 0 1-1.711 11h-19.29c-2.205 0-4 1.794-4 4v19.29A35.987 35.987 0 0 1 70 96c-3.756 0-7.457-.576-11-1.711V75c0-2.206-1.794-4-4-4H35.71A35.987 35.987 0 0 1 34 60c0-3.755.576-7.456 1.712-11H55c2.206 0 4-1.794 4-4V25.712A35.986 35.986 0 0 1 70 24Z"/></g><path fill="#5b5b5b" d="M70 24a37.934 37.934 0 0 1 11 1.617V45a4 4 0 0 0 4 4h19.725a32.4 32.4 0 0 1-.308 19H85a4 4 0 0 0-4 4v18.384a38.235 38.235 0 0 1-22 0V72a4 4 0 0 0-4-4H35.582a32.4 32.4 0 0 1-.307-19H55a4.005 4.005 0 0 0 4-4V25.616A37.933 37.933 0 0 1 70 24Z" data-name="Subtraction 46"/><path fill="#fff" d="m6 60 16-16v32Z" data-name="Polygon 6"/><path fill="#404040" d="M35.274 49H55v22H36.725A32.171 32.171 0 0 1 34 58a32.315 32.315 0 0 1 1.274-9Z" data-name="Subtraction 48"/><rect width="19" height="2" fill="#5b5b5b" data-name="Rectangle 198" rx="1" transform="rotate(90 3.5 52.5)"/></g></svg>
