<svg xmlns="http://www.w3.org/2000/svg" width="120" height="120"><defs><clipPath id="b"><circle cx="36" cy="36" r="36" fill="#2a2a2a" data-name="Ellipse 23" transform="translate(24 24)"/></clipPath><clipPath id="a"><path d="M0 0h120v120H0z"/></clipPath></defs><g clip-path="url(#a)"><g fill="none" stroke="#fff" stroke-width="4" data-name="Border white - outer" transform="translate(10 10)"><circle cx="50" cy="50" r="50" stroke="none"/><circle cx="50" cy="50" r="48"/></g><g fill="none" stroke="#fff" stroke-width="4" data-name="Border white - inner" transform="translate(18 18)"><circle cx="42" cy="42" r="42" stroke="none"/><circle cx="42" cy="42" r="44"/></g><g fill="#404040" stroke="#2a2a2a" stroke-width="8" data-name="Button - Base" transform="translate(14 14)"><circle cx="46" cy="46" r="46" stroke="none"/><circle cx="46" cy="46" r="42" fill="none"/></g><g data-name="Button - Top Alt"><g fill="#5b5b5b" stroke="#404040" stroke-width="8" data-name="Button - Top" transform="translate(22 22)"><circle cx="38" cy="38" r="38" stroke="none"/><circle cx="38" cy="38" r="34" fill="none"/></g></g><circle cx="38" cy="38" r="38" fill="#fff" data-name="Ellipse 22" transform="translate(22 22)"/><g clip-path="url(#b)" data-name="Mask Group 4"><path fill="#2a2a2a" d="M56.416 95.852a35.907 35.907 0 0 1-15.98-5.664c-4.04-2.636-4.952-3.719-4.952-5.881 0-4.343 4.776-11.951 12.946-20.623 4.64-4.925 11.1-10.7 11.8-10.542 1.359.3 12.223 10.9 16.29 15.89 6.432 7.889 9.388 14.348 7.886 17.228-1.142 2.189-8.227 6.467-13.432 8.111a39.481 39.481 0 0 1-14.558 1.481ZM30.028 79.788c-3.357-5.151-5.053-10.221-5.872-17.554-.27-2.421-.173-3.806.614-8.776a35.94 35.94 0 0 1 8.746-17.77c1.805-1.878 1.967-1.924 4.167-1.183 2.672.9 5.526 2.871 9.952 6.873l2.581 2.334-1.41 1.732c-6.543 8.044-13.453 19.444-16.057 26.493-1.416 3.834-1.987 7.682-1.378 9.284.411 1.082.034.678-1.344-1.434Zm58.925.876c.332-1.619-.088-4.592-1.071-7.591-2.129-6.494-9.245-18.576-15.779-26.79l-2.057-2.586 2.225-2.043a46.993 46.993 0 0 1 7.1-5.623 13.67 13.67 0 0 1 5.228-2.018c.651 0 2.941 2.377 4.79 4.971a37.683 37.683 0 0 1 6.037 13.956 46.457 46.457 0 0 1 .111 13.554 42.721 42.721 0 0 1-2.7 8.519 45.616 45.616 0 0 1-3.687 6.317c-.451.574-.452.573-.2-.666ZM57.005 32.788a44.764 44.764 0 0 0-10.235-3.619 18.748 18.748 0 0 0-3.415-.192c-2.12.107-2.025 0 1.376-1.61a34.97 34.97 0 0 1 8.385-2.794 43.225 43.225 0 0 1 13.915-.018 38.83 38.83 0 0 1 10.877 4.047l.755.465-1.732-.087c-3.442-.174-8.458 1.217-13.843 3.837a28.675 28.675 0 0 1-3.14 1.4c-.1-.019-1.427-.664-2.943-1.434Z"/></g></g></svg>
