<svg xmlns="http://www.w3.org/2000/svg" width="120" height="120"><defs><clipPath id="a"><path d="M0 0h120v120H0z"/></clipPath></defs><g clip-path="url(#a)"><g fill="#2a2a2a" stroke="#fff" stroke-width="4" data-name="Rectangle 49"><path stroke="none" d="M48 30h50a10 10 0 0 1 10 10v46a4 4 0 0 1-4 4H18a4 4 0 0 1-4-4V64a34 34 0 0 1 34-34Z"/><path fill="none" d="M48 28h50a12 12 0 0 1 12 12v46a6 6 0 0 1-6 6H18a6 6 0 0 1-6-6V64a36 36 0 0 1 36-36Z"/></g><path fill="#404040" d="M48 30h46a10 10 0 0 1 10 10v42a4 4 0 0 1-4 4H18a4 4 0 0 1-4-4V64a34 34 0 0 1 34-34Z" data-name="Rectangle 50"/><path fill="none" d="M44 34h22a30 30 0 0 1 30 30v14a4 4 0 0 1-4 4H18a4 4 0 0 1-4-4V64a30 30 0 0 1 30-30Z" data-name="Rectangle 52"/><path fill="#fff" d="M48.935 67.07h6.84V71h-11.97V49.79h5.13Zm21.93-6.99a5.311 5.311 0 0 1 3.045 1.86 5.092 5.092 0 0 1 1.125 3.27 5.269 5.269 0 0 1-1.815 4.26A7.864 7.864 0 0 1 68.015 71h-9.87V49.79h9.63a7.863 7.863 0 0 1 5.01 1.41 4.841 4.841 0 0 1 1.77 4.02 4.953 4.953 0 0 1-1.02 3.195 4.7 4.7 0 0 1-2.67 1.665Zm-7.59-1.62h3.36q2.67 0 2.67-2.28t-2.73-2.28h-3.3Zm3.66 8.37q2.85 0 2.85-2.34a2.229 2.229 0 0 0-.75-1.785 3.171 3.171 0 0 0-2.13-.645h-3.63v4.77Z" data-name="Path 144" opacity=".5"/></g></svg>
