<svg xmlns="http://www.w3.org/2000/svg" width="120" height="120"><defs><clipPath id="a"><path d="M0 0h120v120H0z"/></clipPath></defs><g clip-path="url(#a)"><g fill="#2a2a2a" stroke="#fff" stroke-width="4" data-name="Rectangle 49"><path stroke="none" d="M30 85V23a4 4 0 0 1 4-4h52a4 4 0 0 1 4 4v62a20 20 0 0 1-20 20H50a20 20 0 0 1-20-20Z"/><path fill="none" d="M28 85V23a6 6 0 0 1 6-6h52a6 6 0 0 1 6 6v62a22 22 0 0 1-22 22H50a22 22 0 0 1-22-22Z"/></g><path fill="#404040" d="M30 81V23a4 4 0 0 1 4-4h48a4 4 0 0 1 4 4v58a20 20 0 0 1-20 20H50a20 20 0 0 1-20-20Z" data-name="Rectangle 50"/><path fill="#fff" d="M49.03 53.07h6.84V57H43.9V35.79h5.13Zm24.45-17.28v4.08h-5.76V57h-5.16V39.87h-5.7v-4.08Z" data-name="Path 146" opacity=".5"/></g></svg>
