<svg xmlns="http://www.w3.org/2000/svg" width="120" height="120"><defs><clipPath id="a"><path d="M0 0h120v120H0z"/></clipPath></defs><g clip-path="url(#a)"><g fill="#2a2a2a" stroke="#fff" stroke-width="4" data-name="Rectangle 49"><path stroke="none" d="M24 30h50a34 34 0 0 1 34 34v22a4 4 0 0 1-4 4H18a4 4 0 0 1-4-4V40a10 10 0 0 1 10-10Z"/><path fill="none" d="M24 28h50a36 36 0 0 1 36 36v22a6 6 0 0 1-6 6H18a6 6 0 0 1-6-6V40a12 12 0 0 1 12-12Z"/></g><path fill="#404040" d="M28 30h46a34 34 0 0 1 34 34v18a4 4 0 0 1-4 4H22a4 4 0 0 1-4-4V40a10 10 0 0 1 10-10Z" data-name="Rectangle 50"/><path fill="#5b5b5b" d="M32 34h46a30 30 0 0 1 30 30v14a4 4 0 0 1-4 4H30a4 4 0 0 1-4-4V40a6 6 0 0 1 6-6Z" data-name="Rectangle 52"/><path fill="#fff" d="m60.325 71-4.59-8.01h-1.17V71h-5.13V49.79H58.2a9.457 9.457 0 0 1 4.26.87 6.008 6.008 0 0 1 2.61 2.385 6.832 6.832 0 0 1 .87 3.465 6.159 6.159 0 0 1-1.28 3.93 6.517 6.517 0 0 1-3.7 2.22L66 71Zm-5.76-11.52h3.18A3.2 3.2 0 0 0 60 58.8a2.605 2.605 0 0 0 .72-1.995 2.645 2.645 0 0 0-.735-1.98 3.08 3.08 0 0 0-2.235-.72h-3.18Zm26.67.6a5.311 5.311 0 0 1 3.045 1.86 5.092 5.092 0 0 1 1.125 3.27 5.269 5.269 0 0 1-1.815 4.26A7.864 7.864 0 0 1 78.385 71h-9.87V49.79h9.63a7.863 7.863 0 0 1 5.01 1.41 4.841 4.841 0 0 1 1.77 4.02 4.953 4.953 0 0 1-1.02 3.195 4.7 4.7 0 0 1-2.67 1.665Zm-7.59-1.62h3.36q2.67 0 2.67-2.28t-2.73-2.28h-3.3Zm3.66 8.37q2.85 0 2.85-2.34a2.229 2.229 0 0 0-.75-1.785 3.171 3.171 0 0 0-2.13-.645h-3.63v4.77Z" data-name="Path 141"/></g></svg>
