<svg xmlns="http://www.w3.org/2000/svg" width="120" height="120"><defs><clipPath id="a"><path d="M0 0h120v120H0z"/></clipPath></defs><g clip-path="url(#a)"><g fill="none" stroke="#fff" stroke-width="4" data-name="Border white - outer" transform="translate(10 10)"><circle cx="50" cy="50" r="50" stroke="none"/><circle cx="50" cy="50" r="48"/></g><g fill="none" stroke="#fff" stroke-width="4" data-name="Border white - inner" transform="translate(18 18)"><circle cx="42" cy="42" r="42" stroke="none"/><circle cx="42" cy="42" r="44"/></g><g fill="#404040" stroke="#2a2a2a" stroke-width="8" data-name="Button - Base" transform="translate(14 14)"><circle cx="46" cy="46" r="46" stroke="none"/><circle cx="46" cy="46" r="42" fill="none"/></g><path fill="#404040" d="M60 14a42 42 0 1 1-29.7 12.3A42 42 0 0 1 60 14Z" data-name="Button - Top"/><g data-name="Button - Top Alt"><g fill="#5b5b5b" stroke="#404040" stroke-width="8" data-name="Button - Top" transform="translate(22 18)"><circle cx="38" cy="38" r="38" stroke="none"/><circle cx="38" cy="38" r="34" fill="none"/></g></g><g fill="#404040" stroke="#404040" stroke-width="4" data-name="Component 12 – 53"><g data-name="Ellipse 41" transform="translate(54 20)"><circle cx="6" cy="6" r="6" stroke="none"/><circle cx="6" cy="6" r="4" fill="none"/></g><g data-name="Ellipse 44" transform="translate(54 80)"><circle cx="6" cy="6" r="6" stroke="none"/><circle cx="6" cy="6" r="4" fill="none"/></g><g data-name="Ellipse 42" transform="translate(24 50)"><circle cx="6" cy="6" r="6" stroke="none"/><circle cx="6" cy="6" r="4" fill="none"/></g><g data-name="Ellipse 43" transform="translate(84 50)"><circle cx="6" cy="6" r="6" stroke="none"/><circle cx="6" cy="6" r="4" fill="none"/></g></g><path fill="#fff" d="m53.088 69-5.355-9.345h-1.365V69h-5.985V44.255H50.6a11.033 11.033 0 0 1 4.97 1.015 7.009 7.009 0 0 1 3.045 2.783 7.971 7.971 0 0 1 1.018 4.042 7.186 7.186 0 0 1-1.488 4.585 7.6 7.6 0 0 1-4.322 2.59L59.7 69Zm-6.72-13.44h3.71a3.737 3.737 0 0 0 2.622-.787 3.039 3.039 0 0 0 .84-2.328 3.085 3.085 0 0 0-.858-2.31 3.593 3.593 0 0 0-2.607-.84h-3.71Zm34.055 6.475a6.822 6.822 0 0 1-1 3.605 7.035 7.035 0 0 1-2.94 2.625 10.358 10.358 0 0 1-4.707.98 11.087 11.087 0 0 1-6.86-2.03 7.355 7.355 0 0 1-2.94-5.67h6.37a3.362 3.362 0 0 0 1 2.205 3.069 3.069 0 0 0 2.187.8 2.539 2.539 0 0 0 1.82-.63 2.205 2.205 0 0 0 .665-1.68 2.169 2.169 0 0 0-.613-1.575 4.8 4.8 0 0 0-1.523-1.033q-.91-.4-2.52-.963a30.939 30.939 0 0 1-3.832-1.552 7.058 7.058 0 0 1-2.555-2.24 6.482 6.482 0 0 1-1.067-3.867 6.512 6.512 0 0 1 1.12-3.815 7.12 7.12 0 0 1 3.1-2.468 11.3 11.3 0 0 1 4.533-.858 10.161 10.161 0 0 1 6.562 1.96 7.479 7.479 0 0 1 2.748 5.39h-6.478a3.321 3.321 0 0 0-.892-1.943 2.625 2.625 0 0 0-1.943-.718 2.5 2.5 0 0 0-1.7.56 2.056 2.056 0 0 0-.648 1.645 2.089 2.089 0 0 0 .577 1.488 4.4 4.4 0 0 0 1.453 1q.875.385 2.52.98a27.7 27.7 0 0 1 3.885 1.592 7.432 7.432 0 0 1 2.59 2.293 6.549 6.549 0 0 1 1.088 3.919Z" data-name="Path 150"/></g></svg>
