<svg version="1" xmlns="http://www.w3.org/2000/svg" width="933.333" height="933.333" viewBox="0 0 700.000000 700.000000"><path d="M371.3 26.8c.4 4.4 5.2 32.7 7.7 45.1.5 2.9 1 5.8 1 6.2 0 .5-3.3.9-7.3.9h-7.4l-11.4-11.3c-12.5-12.4-16.4-15.7-28.6-24-12.2-8.4-34.3-18.7-40.7-19.1-2.6-.2-15.2 3.6-49.6 14.9-14.6 4.8-28.1 9.2-30 9.8-5.5 1.7-5.5 2.3-.3 5.3 10.7 6.2 21.5 13.6 29.9 20.4 11.7 9.6 26.4 22.4 26.4 23 0 .3-2.5 1.4-5.6 2.5-5.5 1.9-5.7 1.9-8.8 0-13-7.6-37.6-18.8-37.6-17 0 .2-1.2 0-2.7-.6-5.1-1.9-18.1-2.8-24.9-1.6-3.5.6-5.5 2.1-14.5 11.5-13.4 13.9-30.3 32.2-40.9 44.2-4.7 5.2-10.7 11.9-13.5 14.8-4.6 5-7 8.1-6.3 8.3 1.8.4 4.7.7 12.8 1.3 5.2.4 12.9 1.2 17 1.7s9.5 1.2 12 1.5c2.5.3 8.3 1.2 13 2 4.7.7 8.8 1.4 9.3 1.4.4 0-.9 3.1-2.8 7-2.5 5-4.2 7.1-5.8 7.4-30.1 5.9-50.7 14.4-61 25.4l-2.8 2.9-.4 19.9c-1 49-1.5 91.4-1.1 91.4.2 0 3.2-4.5 6.6-10.1 7.5-12.1 12.9-18.9 23.1-29 8.1-8 13.8-12.6 14-11.2.8 5.2.5 5.9-7 13.2-10.5 10.3-15.5 17-20.7 27.2-6.8 13.6-6.8 14.6.5 27.4 3.4 5.9 6.1 10.9 6.1 11.1 0 .2 1.5 2.7 3.4 5.6 2.7 4.4 15.8 27.2 23.3 40.7 1 1.9 2.3 3.6 2.8 3.8.6.1 2.1-1.6 3.4-4 5.3-9.3 15.2-23.5 20.4-29.2l5.5-6 2.8 2.2c15.3 11.9 31.1 19.5 53.8 25.8l5.9 1.7-8.3 4.4c-25 13.4-43.1 32.9-54.1 58.3-3.6 8.4-8.2 22.9-9.4 29.6-.3 1.6-.8 4.3-1.1 6-2 10.4-2.5 31.8-1 44 2.8 21.8 14 48.7 29.6 70.8 7.8 11 26.5 30.1 37.5 38.2 14 10.5 32.6 20.6 45.7 24.9 36.7 12.2 63.2 14.6 98.7 9 35.6-5.6 74.7-25.9 101.3-52.6 17.5-17.5 38.6-51.7 46.1-74.8 14.5-44.3 13.3-93.7-3.3-137-5.3-13.7-19.9-39.5-26.2-46.1-.7-.8-2.5-3-3.9-4.9-11.9-15.9-35.5-35.9-58.4-49.6-23-13.6-42.6-21.8-74.3-30.9-23.6-6.9-31.6-10.1-36.9-15.1-4.6-4.3-4.4-7.7.6-12.4 2.9-2.8 5.3-4 9.8-4.9 9.4-2 34.4-1.8 48.3.3 1.4.2 4.6.7 7.1 1 2.5.4 5.7.8 7 1 1.3.3 4.7.8 7.4 1.2 2.8.4 5.5.8 6 1 .6.1 2.7.4 4.7.8 2 .3 9.9 2 17.5 3.7 7.6 1.7 14.9 3.3 16.2 3.5 7.8 1.5 39.1 10.2 57.8 16 7.8 2.4 14.5 4.4 14.7 4.4.8 0 4.5-7.6 7.3-14.9 5-13 3.4-21.4-4.6-25.2-3.9-1.9-68-25.6-75.1-27.9-1.4-.4-3.7-1.3-5.2-1.9l-2.8-1 2.2-4.6c1.4-2.9 2.9-4.5 4-4.5 3.1 0 20.7 4.9 34.8 9.7 25.5 8.6 45 19.1 54.1 29.1 7.1 7.7 9.3 12.9 8.6 20.2-.6 7.2-2.6 11-8.8 16.9-2.7 2.6-4.9 5.1-4.9 5.5 0 .8 12 .3 21-1 27.9-3.7 47.4-19.8 54-44.3 2.4-9.1 1-23.5-3.7-36.5-9.2-25.5-28.5-47.8-62.5-71.9-24.9-17.7-39-25.8-65.5-37.7-4-1.8-7.3-3.7-7.3-4.3 0-1.8-14.2-35.2-19.6-46.1-3-6-6.8-12.2-8.4-13.8-2.8-2.6-3.5-2.8-11.7-2.9-18.5-.1-47.9-.9-51.1-1.3l-3.4-.5.5 4.7zm39.7 4.7c17.7.5 20.7.8 21.8 2.3 2.5 3.1 11.7 22.4 19.6 40.9 4.3 10 8.3 18.6 8.9 19.1.7.5 4.6 2.4 8.7 4.2 25.7 11 64 33.6 77.5 45.7 1.2 1 4.5 3.8 7.4 6.2 32 26.5 50.1 64.3 42.1 88.2-4.3 12.9-13.9 24-25.2 29.2-5.3 2.5-11.6 4.6-15.2 5.2-1.7.3-4.3.8-5.8 1.1-3.3.7-3.3.5-.9-6.5 2.5-7.2 1.9-15.5-1.5-22.3-10-19.7-40.5-35.8-94.7-50.1-9-2.4-13-3.1-13.6-2.3-1.4 1.7-11.3 21.7-10.9 22 .3.3 22 8.5 34.8 13.1 42.8 15.5 52 18.9 54.8 20.1 3.2 1.3 3.3 1.4 2.8 6.7-.5 5.3-.9 6.6-4 13.8l-1.5 3.6-9.3-2.8c-5.1-1.5-13.1-3.9-17.8-5.4-8.1-2.4-36.7-9.9-42-10.9-1.4-.2-7.9-1.6-14.5-3-10.7-2.2-17.4-3.5-27-5-1.6-.3-7-1.2-12-2-4.9-.8-12.1-1.7-15.8-2.1-3.7-.3-7.8-.8-9-1.1-2.9-.6-24.3-.5-28.5.1-1.8.2-5.2.7-7.5 1-13.9 2-24.6 14.2-20.7 23.6 3.7 8.8 15.8 15.8 37.1 21.4 30 7.9 53.6 17.4 77.9 31.4 28.6 16.4 60.9 47.4 74.5 71.6 8.4 14.8 17 35 17.5 40.7.1.4.7 2.6 1.5 4.8 3.5 9.8 6.7 34.9 6.8 52.5.4 61.4-30.2 119.6-80.1 152.8-11.3 7.6-18.4 11.4-26.7 14.7-3.3 1.3-6.4 2.7-7 3.1-3.4 2.4-31.2 10.4-40 11.4-15.7 1.9-21.2 2.2-32 2-12.6-.3-23.7-1.4-30.9-3-1.2-.3-3.3-.7-4.7-.9-4.7-.8-17.3-4.5-25-7.5-16.8-6.5-34.6-17-49.4-29.1-28.5-23.4-49.4-57-57.1-92-2.2-9.9-2.6-33.8-.7-45.5 3.4-22.1 9.6-38.6 20.6-54.9 14-20.8 35-36 66-47.7 5.2-1.9 8.3-3.6 7.5-4-.7-.3-4.4-.9-8.3-1.2-9.8-.8-17.3-2.4-30.3-6.3-18.3-5.6-30.4-11.7-43.6-22.2l-6.8-5.5-3.1 1.8c-5.1 3-16.4 16-23.7 27.2-1.9 2.9-3.7 4.9-4.1 4.5-.6-.6-23.8-41.2-31.3-54.7-2.2-3.8-2.2-4.2-.7-8 .9-2.3 2.6-5.8 3.9-7.8 1.2-2.1 2.2-4.1 2.2-4.4 0-2.2 14.6-18.4 23.3-25.9l3.6-3.1v-12.2l.1-12.1-4.3 2.1c-10 5.1-26.1 18.9-36.6 31.1l-4 4.8.5-37.8c.3-20.7 1-39.1 1.5-40.8 2.7-8.7 28.3-20 55.2-24.5l7.9-1.3 3.5-7.1c1.9-3.8 5-9.5 6.9-12.6 3.3-5.5 4.2-8.1 2.7-7.7-.5.1-2.4-.1-4.3-.5s-4.5-.9-5.8-1.2c-2.4-.4-21.4-3-29.4-3.9-4.4-.5-7-.9-16.3-2.1-1.6-.2-3.4-.4-3.8-.4-.5-.1 1-2.4 3.4-5.2 4.2-5 8.6-9.9 33.4-36.3 6.6-7 14.1-15 16.6-17.8 4-4.2 5.4-5.1 9.1-5.5 12.8-1.5 34.2 5.5 56.1 18.4l7.7 4.5 8.3-3.5c4.6-2 10.2-4 12.6-4.6 2.3-.5 4.4-1.1 4.7-1.3.3-.4-11.9-12-24.2-22.9-5.7-5-19.3-15.6-29.3-22.7l-4.3-3.1 3.8-1c2.2-.6 17.4-5.5 33.9-11l29.9-9.9 6.1 2c20.3 7 41.5 21.6 61.3 42.2L362 87.1l5.2.1c2.9 0 9.2 0 13.9-.1l8.5-.1-2.2-12.8c-1.2-7-2.5-14.3-2.8-16.2-.4-2.9-2.5-14.8-4.1-23.9-.6-3.5-.1-3.9 5.2-3.5 2.7.1 14 .5 25.3.9z"/><path d="M392.3 48.3c1 5.4 3.3 17.1 5.1 25.9 1.7 8.7 2.9 16.1 2.6 16.3-.6.4-34.8 1.9-38.4 1.7-1-.1-7.8-5.9-15-13.1-19.4-19.2-26.9-25.2-39.6-31.8-10-5.2-15-6.7-19.4-5.9-3.7.7-4.7 2-2.1 2.9 2.3.9 8.2 10.6 10.5 17.2 2.2 6.4 5.3 19.6 4.7 20.2-.2.1-2-1.4-3.9-3.4-8.5-9.1-17.6-15.6-31-22.3l-10.7-5.3-8 2.3c-4.4 1.2-7.8 2.6-7.5 3.1.3.5 4.6 3.7 9.7 7.1 13.5 9.2 39.7 35.3 39.7 39.5 0 .5-1.9 1.5-4.2 2.2-7.5 2.1-17.1 6.3-24.6 10.9l-7.4 4.4-15.1-7.5c-15.8-7.7-31.3-14-38.2-15.5-6-1.2-11.1 0-15 3.8l-3.3 3.2 5.6 4.7c3.2 2.7 6.9 7 8.5 9.9 2.8 5.2 6.2 15 5.4 15.8-.2.3-1.5 0-2.8-.5-4.3-1.9-16.2-3-27.9-2.5-16.3.5-16.6.6-24.2 8.1-3.7 3.7-6.6 6.8-6.5 7 .2.1 2.5.5 5.3.8 15.8 1.7 20.9 2.4 27.4 3.6 8.8 1.7 18.3 4.8 21 6.9 2.4 1.9 2.5 2 .8 4.7-5.7 9.6-9.9 17.6-11.8 22.9l-2.1 6.1-10.7 2.7c-5.9 1.5-11.4 2.9-12.2 3.1-8.1 1.8-25.1 9.4-33.1 14.8-4.2 2.7-8.7 8.2-7.7 9.2.2.2 2.5-.2 5.1-1 9.7-2.9 23.6-3.6 29.1-1.5l2.9 1.1-4.4 2.8c-5.6 3.5-15.8 13.5-23.5 23.1-10.3 12.7-11.4 14.8-11.4 20.8v5.4l9.3-9.4c6.3-6.5 11-10.3 14.8-12.2 6.7-3.2 16.2-4.6 17.5-2.5.4.8.9 6.3.9 12.4.1 6 .5 12.9.9 15.1.7 4.1.7 4.2-4.2 7.8-10 7.3-22.2 21.8-26.2 31.1-2.5 5.7-2.5 6.7-.1 9.6l1.8 2.3 6.9-4.5c8-5.2 11.2-6.7 16.1-7.5 6.7-1.1 6.7-.4.9 11.3-6.9 13.7-10.6 22.6-10.6 25.5 0 1.2 1.4 5 3.2 8.5l3.1 6.3 2.8-5c7.5-13.8 17.5-22.3 28.6-24.3 2.8-.6 3.5-.1 6.9 4.1 14 17.3 31 27 57.4 32.8 5.9 1.3 14.1 1.7 38.5 1.9 17.1.1 32.6.5 34.5.9 1.9.3 6.2 1.1 9.5 1.7 16 2.8 35.9 9.7 48 16.7 18.5 10.7 36.3 27.6 45 42.7 10.4 17.9 14.5 32.2 14.9 52 .4 22.1-5.8 43-17.5 59-5.2 7-15.7 17.1-22.9 22-6.7 4.4-22.7 11.8-28 12.9-1.4.2-5 1-8 1.6-5.7 1.2-25.7 1.5-30 .5-1.4-.3-4.1-.8-6-1.1-6.6-1.1-19.8-6.5-27.6-11.4-40.6-25-56-76.2-35.5-118.5 6.5-13.5 14.6-23.4 27.3-33.3 9.5-7.5 25.1-14.8 35.4-16.5 9.8-1.7 16.9-2.5 23.8-2.6 1.6-.1 2.7-.3 2.4-.6-.7-.7-19.8-5.4-24.8-6.1-2.5-.3-4.7-.7-5-.9-1.1-.6-16.8-1.8-24.1-1.7-51.1.1-90.6 30.8-105.9 82-5.3 18-6.2 42.8-2.2 61.3 7.5 34.6 29 67.1 60.4 90.9 15.6 11.8 48.3 25.5 70.3 29.4 3.7.7 10 1.7 13.5 2.1 4.1.6 30.9.7 31.9.1.3-.2 3.5-.7 7-1 32.7-3.4 70.1-21.6 98.6-48 25-23.3 44.2-64.3 48.1-103.1 1.1-11.3.2-41.7-1.6-52.5-.5-3-1.2-6.9-1.5-8.7-1.2-7.2-8-25.6-13.9-37.8-8.7-17.6-20.3-34-34.5-48.4-15.2-15.4-20.3-19.7-34.1-28.5-30.8-19.6-59.8-32.8-84-38.2-13.4-2.9-30-10.8-36.7-17.4-10.6-10.4-9.3-25.2 2.9-34.1 4.8-3.4 13.4-6.7 19.1-7.4 2.3-.3 6-.8 8.2-1.1 4.7-.7 22-.7 28.5 0 11.9 1.4 15.5 1.9 28.8 4.2 19 3.2 39.8 7.7 55.7 11.8 28 7.3 47.2 12.8 52.2 15.1l5.3 2.4.8-3.1c2.3-9-1.8-14.4-13.8-18.3-19.2-6-70.8-25.9-75.7-29L419 214l7.3-14.6 7.2-14.5 4 .6c28.6 4.5 61.8 14.5 79 24 18.1 9.9 33.1 22.9 38 33 2.5 5.2 3 7.2 3 14.3 0 9.3-.4 9.1 8.3 3.9 21.4-12.8 28.9-31.4 21.6-53.3-2-6.2-5.2-11.8-12.6-22.1-21.5-30-47.4-51.4-85.8-70.7-9.1-4.5-17.8-8.8-19.5-9.4-1.6-.6-6.8-2.6-11.4-4.4l-8.4-3.3-6.2-18c-7.2-20.9-11.8-32.7-14-36.1-1.3-2.1-2.3-2.4-7.6-2.4-3.3 0-5.8.3-5.6.7.6 1 1.9 32.8 1.3 32.2-.8-.7-12.2-20.7-17-29.6-2.5-4.5-3.2-5.1-6.5-5.5l-3.7-.3 1.9 9.8zm-54.7 40.4c1.7 1.6 4.9 4.4 7.1 6.4 6.1 5.5 6.1 5.7-2 5.6-14.1-.1-25.1 3.2-37.8 11.6l-2.7 1.8-3.1-9.7c-3.4-10.7-3.7-12.4-1.8-12.5.6 0 1.9-.2 2.7-.4.8-.1 3.3-.6 5.5-1 2.2-.3 8.3-1.4 13.5-2.3 14.3-2.6 15.1-2.6 18.6.5zm103.2 8.2c1.2 4.6 2.1 8.6 1.8 8.8-.3.3-4.4-.8-9.2-2.4-8.2-2.9-8.9-3-14.8-1.8-3.3.7-7.7 1.5-9.7 1.8l-3.6.5.9-5c1.9-10.1 1.2-9.7 14-10 6.2-.2 12.9-.3 14.8-.2h3.5l2.3 8.3zm-40.2 17.5c4.9.4 9.6.9 10.4 1.1.8.2 4 .7 7 1 7.2.8 26.8 5.8 35 8.8 6.2 2.4 6.5 2.6 7.5 6.8.6 2.4 1 5.4.9 6.6-.1 1.3-.2 3.3-.3 4.6-.2 3.5-5.6 11.1-10.1 14.1-2.2 1.4-6.2 3.5-8.9 4.6-4.7 1.8-5.4 1.8-12.3.4-8.1-1.7-8.9-1.9-16.8-2.8-3-.3-7.7-.9-10.5-1.2-2.7-.3-18.9-.8-35.9-1-29.9-.4-30.9-.5-34-2.6-1.7-1.3-3.9-3.2-4.8-4.3-2.4-2.8-4.6-9.6-4.3-12.8.5-4.1 4-10.6 8.5-15.9 3.4-4 4.8-4.8 8.8-5.4 2.6-.3 5.5-.8 6.5-1 1-.2 6.2-.6 11.5-1 5.3-.3 9.8-.7 10-.9.4-.4 23 .3 31.8.9zm-163.2 15.5c.3.5-1.8 2.2-4.6 3.9-10 5.6-18.7 17.3-20.3 27.3-1.2 7.2-2.2 10.4-2.8 8.9-.3-.8-1.7-4.8-3.1-8.8L204 154l10.7-16.4 10.7-16.4 5.7 3.9c3.2 2.1 6 4.3 6.3 4.8zm74 3.6c-.8 11.3.5 16.9 5.3 23.1l3.3 4.4h-5.3c-10.3 0-32 7.4-42.3 14.4-2.1 1.4-4 2.4-4.2 2.2-.6-.7 4.8-15.6 7.9-21.8 7.2-14.2 19.6-26.7 30.4-30.6 5.6-2 5.6-2 4.9 8.3zm170.6 0c11.9 2.4 22 14.8 23.4 28.9l.5 4.4-5.2 2.3c-13.8 6-29.5 7.2-43.7 3.4-11.1-2.9-11.2-3.2-3.9-7.1 7-3.8 12-8.1 15.3-13.4 2.8-4.3 5.6-12.4 5.6-16 0-3.2.8-4.2 2.9-3.6.9.3 3.2.8 5.1 1.1zm-231.6 7.6c7.2 5.7 8.2 21.3 2.2 34.4-5.5 12.1-13.6 19.6-21.4 19.7-7.8.1-12.1-5.7-12.7-17.3-.6-11.7 3.1-22.2 10.8-30.6 7.4-8.1 15.7-10.5 21.1-6.2zm278.2 13.1c9.3 7 23 20.2 33.7 32.3 5.3 5.9 11.4 16.7 14.1 24.6 4 11.9 2.3 24.3-4.1 30.1-1.9 1.7-2 1.6-4.2-3-11-22.9-29.7-38.7-57-48.3l-9.3-3.2 3.3-1.7c11.8-5.7 18.7-16.2 19.2-29.2.1-2.1.4-3.8.8-3.8.3 0 1.9 1 3.5 2.2zm-139.1 20.2c2.2.3 9 1.3 15.2 2.2l11.2 1.6-1.9 4.9c-3.3 8.2-6.1 23.2-6.4 34.1-.1 1.4-.4 2.9-.8 3.3-.4.4-3.8 0-7.6-.9-3.8-.8-9.3-1.8-12.3-2.2-3-.3-5.7-.8-6-1-1.3-.7-25.4-1.8-40.4-1.8-17.8.1-33.5.9-54 2.9-2.7.3-8.4.7-12.5 1l-7.5.5 7.5-3c14-5.7 52.9-17.7 63.5-19.6 4.7-.8 11.6-2.4 16-3.6l4-1.1-4-.8c-5.3-1-30.5-.3-37.5 1-19.6 3.7-34.8 7.8-51.5 14l-10.4 3.8 1.9-2.6c2.8-4 11-11.5 16.3-15.1 11.7-7.8 25.7-12.6 47.7-16.4 12.3-2.2 15.9-2.3 39.5-2 14.3.1 27.8.5 30 .8zm-177.9 30.3c13.9 24.8 44.5 36.6 76.5 29.4 3.5-.8 3.7-.7 4.2 1.8.9 4.1 0 18.2-1.3 22.6-6.1 20.1-26.5 31.5-56.9 31.6-11.5.1-26.2-1-33.1-2.6-10.2-2.2-19.7-10.6-22.5-19.7-4.3-14.4 1-40 13.5-64.8 1.5-3 4-8 5.6-11 4.5-9 4.5-9 7.5-1.1 1.5 3.9 4.4 10.1 6.5 13.8zm-30.6.2c0 .5-1.1 3.3-2.5 6.3-3.1 6.7-6.9 22.1-7.5 29.8 0 .3-2.9.7-6.4.8l-6.4.2.5-3.2c.2-1.8 1.6-8.9 3.1-15.8l2.7-12.4 7.5-3.3c8.3-3.5 9-3.7 9-2.4zm118 88.5c18 12.2 20.5 24.7 8 38.9-8.3 9.5-33 23.2-46.3 25.7-7.1 1.4-21 1.4-28.8 0-15.9-2.8-30.7-14-37.5-28.3-3.4-7.2-7.5-23-6.2-24.2.3-.3 3.3.1 6.6 1 13.9 3.6 20.7 4.3 36.2 4 16.4-.2 17-.3 27.6-3.6 11.2-3.5 25.7-11.7 30.3-17.2 1.5-1.9 2.5-1.5 10.1 3.7zm-127.8 5.3c.4 9.7 2.8 15.4 9.6 23.3l3.4 4-4.4 1.9-4.3 1.8-1.7-3.2c-2.4-4.6-14-31.7-13.6-31.9 2.1-1.1 9.5-4.5 9.9-4.5.4-.1.8 3.8 1.1 8.6zm177.3 11.8c19.7 4.2 24.3 15.8 14.2 36-8.9 18-19.6 23.7-39.2 21.1-7-.9-18.4-4.9-23.7-8.3l-3.9-2.4 7.3-5.8c15.2-12.1 24-24.7 26.2-37.3.3-1.5.7-3.2 1.1-3.8.9-1.4 9.9-1.2 18 .5zm45 18c19.9 7.4 39.5 20.6 57.3 38.6 7.8 8 17.5 19.9 16.7 20.7-.1.2-2.3-.7-4.7-1.9-8.9-4.6-17.5-5.5-27.6-3-4.3 1.1-5.2 1.7-4.7 3 4.3 10.9 4.8 24.7 1.5 35.2-2.1 6.6-2.5 7.1-3.7 5.3-5.5-7.9-13.7-18.5-16.5-21.4-12.3-12.7-29.9-23.6-47.3-29.1-8.8-2.8-9.4-3.4-5.9-5.3 4.2-2.2 10.7-8.4 14.7-13.8 5-6.8 7.9-14.9 8.2-23.8.2-4.1.4-7.6.4-7.8.2-.5 5.6 1.1 11.6 3.3zm71.9 74.5c6.8 2.3 13.3 5.9 15.9 8.8 5.1 5.6 14.9 37 17.3 55.2.3 2.5.7 5.6.9 6.9.2 1.2.7 6 1 10.5.3 4.4.8 9.2 1.1 10.6l.5 2.5-2-2.5c-1.1-1.4-6.6-9.8-12.2-18.7-5.6-9-10.3-16.3-10.5-16.3-.2 0-.8 1.9-1.4 4.2-.6 2.4-2.9 8-5.1 12.6-3.2 6.6-5.8 10.1-12.5 16.9-4.7 4.7-8.6 8.4-8.8 8.2-.2-.2-.6-5.1-.9-10.9-.7-14.6-3-25.3-7.3-34.8-1.3-2.9-2.4-5.6-2.4-6 0-.4-1.1-2.3-2.4-4.2l-2.3-3.4 4.3-6.4c7.5-10.8 12.5-24.4 13.3-35.8.1-1.4 4.6-.5 13.5 2.6zM287 404.2c-11.1 6.3-22.4 16.3-28.9 25.7l-2.4 3.3-1.5-2.5c-1.8-2.9-7.8-6.2-14-7.6-2.4-.5-4.6-1.1-4.8-1.4-.7-.7 4.8-4.8 12.1-9 6.8-3.9 21.1-9.3 27.7-10.2 2.3-.4 4.5-.9 4.7-1.1.2-.2 3.2-.4 6.5-.4h6.1l-5.5 3.2zm-47.6 28.2c3.7 1.6 7.8 6.3 8.3 9.8.2 1.2.6 2.4.8 2.6.3.3-.4 2.1-1.4 4.1-1.1 2-3.2 7-4.7 11.1s-2.8 7.7-3 7.9c-.2.2-2.2-1.3-4.5-3.3-6.6-5.6-20.1-8.5-29.2-6.2l-2.8.7 2-3.8c1.1-2.1 3.4-5.4 5.1-7.3 1.7-1.9 5.4-6.1 8.3-9.4 2.8-3.2 6.1-6.2 7.2-6.7 3.2-1.3 10.3-1 13.9.5zm-14.8 39.9c2.7 1.4 6.5 4 8.5 5.9 3.5 3.2 3.6 3.7 2.9 7.5-.4 2.3-.6 7.2-.4 11l.3 6.9-10.8-.3c-11.7-.3-20.4 1.5-26.6 5.7-1.6 1.1-3.4 2-3.9 2-.9 0-.2-14.7.9-20.5 1.1-5.5 4.7-17 5.6-18 3.9-4 15.7-4.2 23.5-.2zm258.8 24.4c3.7 4.7 10.8 17 11.2 19.2 0 .4.4 1.7.8 3.1 3.3 12.2-3.1 34-16.9 57.1-19.1 31.9-48.7 54.9-86.6 67.3l-10.4 3.4-5.8-3.1c-15-7.9-25.2-22.4-25.9-36.9l-.3-5.3 10-2.1c12.1-2.5 15.6-3.6 26-8.1 26.7-11.6 47.3-34.2 57-62.8 2.6-7.7 3-8.2 8.3-11.5 6-3.8 16.6-13.8 22.6-21.3 2.1-2.6 4.2-4.7 4.6-4.7.5 0 2.9 2.6 5.4 5.7zm-247.6 17.8c2.1.4 3.2 1.2 3.2 2.3 0 .9 1.2 5.3 2.6 9.7 1.4 4.4 2.9 9.2 3.4 10.8.8 2.6.6 2.9-3.8 5.1-8 4.1-16.3 13.9-22.9 27l-4 7.9-2-2.9c-7.4-10.3-15.8-31.8-16.9-42.9-.6-5.6-.4-6.2 2.1-8.7 7.4-7.4 23.3-10.8 38.3-8.3zm18.5 41.4c3.3 5.3 12.7 15.2 21.6 22.8l3.3 2.9-2 6.5c-1.1 3.6-2.3 8.1-2.6 10-.3 1.9-.8 4.4-1 5.6-.6 3-1.9 20-1.9 24 0 2.1-.4 3.3-1.3 3.3-1.8 0-17.5-10.7-25.6-17.4-7.6-6.3-16.8-17-19.4-22.5-1.7-3.5-1.7-3.7 1.5-13.1 3.3-9.7 8-17.3 13.4-21.9 2.9-2.5 8.5-6 9.8-6.1.3 0 2.2 2.6 4.2 5.9zm55.8 40.5c4.1 1.4 9 2.8 10.9 3.1 1.9.3 4.2.8 5 1 .8.2 3.2.5 5.3.7l3.7.2v5.8c0 6.5 2.8 16 6.4 21.6 2.9 4.5 12.6 14.5 18 18.3l3.9 2.9-4.4.1c-26.3.9-44-1.4-64.6-8.3-8.9-3-9.1-3.2-9.9-6.7-.4-2-.9-4.3-1.1-5.1-.2-.8-.4-5.6-.4-10.5-.1-9.7 1.3-20.3 3.7-27.7l1.5-4.6 7.3 3.3c4 1.9 10.6 4.5 14.7 5.9z"/><path d="M379.6 125.2c-2.2.4-8 2.4-13 4.2-5 1.9-11.3 3.7-13.9 4.1l-4.9.8 8.2 4.3c4.4 2.4 9.3 5 10.8 5.8 3 1.6 15.1 5.7 22.2 7.4 2.5.6 9.5 1 15.5.8 9.4-.3 13.1-1 25.5-4.6 8-2.3 14.9-4.6 15.3-5 .5-.4-1.3-1.3-4-1.8-5-1.1-12.9-4.5-19.8-8.5-11.7-6.8-30.2-10.1-41.9-7.5zm27.9 7.1c1.1.3 3.9 1.3 6.3 2.2 3.7 1.5 4.3 2.1 4 4.4-.4 3.6-5.6 5.8-15.5 6.8-13.1 1.3-28.2-1.4-30.8-5.7-1.7-2.8 2.8-6 11-7.9 4.1-.9 21.4-.8 25 .2zM232.6 163.6l-6.8 8.5 3.8 3.5c2 1.9 4.3 3.4 5 3.2 1.3-.3 14.4-15.7 14.4-16.9 0-1.1-7.3-6.9-8.5-6.8-.5 0-4.1 3.9-7.9 8.5zM222.5 240.9c-9.6 2.3-15.4 10.9-14 20.8.8 5.8 3.4 9.6 9.1 12.9 3.9 2.3 5.3 2.6 10.1 2.1 11.1-1.2 17.9-9 17.1-19.6-.8-11.6-11-18.9-22.3-16.2zM250.6 317.5c-10.1 3.5-14.4 14-9.3 23 2.5 4.5 9.2 8.5 14.1 8.5 4.2 0 11.2-3.6 13.7-7.2 2.4-3.3 3.2-10.5 1.7-14.9-1.3-3.7-6.4-8.7-9.7-9.4-5.9-1.2-6.8-1.2-10.5 0zM331.7 332.7c-8.8 3.6-7.3 17.8 2.2 21.1 3.4 1.2 9.4-.7 12.4-3.9 4.8-5.1 1.9-15.7-4.8-17.8-3.9-1.2-5.5-1.1-9.8.6zM250.7 416c-1.8 2.6-1 6.8 1.5 8.1 5.1 2.7 10.4-2.9 7.3-7.7-2-3.1-6.8-3.2-8.8-.4zM225.5 442.2c-4.8 3.8-2.4 11.8 3.6 11.8 4 0 6.9-2.7 6.9-6.3 0-4.2-1-5.6-4.8-6.6-2.5-.8-3.6-.6-5.7 1.1zM211.7 482c-3.6 3.2-4.1 8.2-1.1 12.3 2.2 2.9 3.8 3.5 8.3 3.2 4.1-.3 6.9-2.9 7.7-7.1 1.1-6.2-1.9-10-8.5-10.8-2.6-.3-4.1.3-6.4 2.4zM464.2 518.7c-5.3 2.6-7.7 6.9-7.6 13.4.1 6.4 2 9.7 7.5 12.8 10.3 5.9 23.2-2.3 22.4-14.1-.8-10.5-12.5-16.9-22.3-12.1zM380.5 601.4c-6.7 3.1-9.5 7.6-9.5 15.2 0 8.7 7.2 15.6 16.6 15.8 11.3.1 19.5-15 13.2-24.4-1.3-1.8-3.5-4.2-5-5.3-3.4-2.5-11.3-3.2-15.3-1.3zM212.8 526.1c-3.3 1.2-6.8 6.6-6.8 10.3 0 9.9 11.3 15.2 18.9 8.8 6-5 5-15.1-1.9-18.7-3.3-1.7-6.2-1.8-10.2-.4zM245.9 576.8c-8.8 4.5-10 16.3-2.1 21.7 6.4 4.4 13.9 3.1 18.1-3.1 4.1-5.9 1.5-16.2-4.7-18.5-4.6-1.8-7.9-1.8-11.3-.1zM307 609.9c-6.8 3.3-9.2 10-5.9 16.7 4.6 9.6 17.6 9.8 22.4.4 5.6-10.8-5.6-22.4-16.5-17.1zM322.5 417.8c-28.8 7.9-48 25.8-57.8 54-2.8 8-3 9.8-3.1 22.7 0 18.7 3.4 31.9 11.8 44.5 23.8 36.1 67.7 47.7 106.4 28.1 19-9.6 36.9-32.5 40.7-52.2 5.4-27.2-.5-52-16.9-71.5-20.1-23.8-51.3-33.7-81.1-25.6zm38.5 6.7c7.1 2.2 20.4 8.9 25.5 12.9 22.4 17.4 33.7 48.7 27 74.6-3.9 15.2-10.3 27-20.1 36.6-17.3 17.2-44 24.5-69 19-16.4-3.5-34.8-16.4-43.9-30.6-4.9-7.6-6.2-10.3-9.1-19-2.4-7.6-2.7-10-2.8-22.5-.1-14.9.9-20 6-31.1 3.6-8 8.1-14.1 15.5-21.4 8.4-8.3 22.7-16.8 31.4-18.6 1.1-.3 3.6-.8 5.5-1.3 5.7-1.4 27.8-.5 34 1.4z"/></svg>