<?xml version="1.0" encoding="UTF-8" standalone="no"?>
<!DOCTYPE svg PUBLIC "-//W3C//DTD SVG 1.1//EN" "http://www.w3.org/Graphics/SVG/1.1/DTD/svg11.dtd">
<svg width="100%" height="100%" viewBox="0 0 827 827" version="1.1" xmlns="http://www.w3.org/2000/svg">
    <g transform="matrix(0.779927,0,0,0.779927,-652.271,9.88755)">
        <g transform="matrix(0,-1,-1,0,1364.43,155.877)">
            <path d="M-359.396,-359.397C-557.885,-359.397 -718.793,-198.489 -718.793,0C-718.793,198.489 -557.885,359.396 -359.396,359.396C-160.907,359.396 0,198.489 0,0C0,-198.489 -160.907,-359.397 -359.396,-359.397Z" style="fill:none;fill-rule:nonzero;stroke:black;stroke-width:12px;"/>
        </g>
        <g transform="matrix(1,0,0,1,1637.63,764.687)">
            <path d="M0,-332.649C-41.85,-247.181 -138.367,-166.063 -245.645,-138.714C-352.429,-111.511 -467.305,-136.887 -548.016,-256.955L-561.763,-249.414C-390.653,0 -74.245,-115.252 15.371,-315.973L0,-332.649Z" style="fill:black;fill-rule:nonzero;"/>
        </g>
        <g transform="matrix(1,0,0,1,1637.63,265.858)">
            <path d="M0,332.649C-41.85,247.181 -138.367,166.063 -245.645,138.715C-352.429,111.511 -467.305,136.888 -548.016,256.955L-561.763,249.414C-390.653,0 -74.245,115.253 15.371,315.973L0,332.649Z" style="fill:black;fill-rule:nonzero;"/>
        </g>
    </g>
</svg>
